<svg xmlns="http://www.w3.org/2000/svg" viewBox="0 0 1080 720" role="img" aria-label="Luxury Cruise"><defs><linearGradient id="bg" x1="0" x2="1" y1="0" y2="1"><stop stop-color="#081828"/><stop offset="1" stop-color="#1d5b78"/></linearGradient><linearGradient id="shade" x1="0" y1="0" x2="0" y2="1"><stop offset=".45" stop-color="#000" stop-opacity="0"/><stop offset="1" stop-color="#000" stop-opacity=".62"/></linearGradient></defs><rect width="1080" height="720" fill="url(#bg)"/><circle cx="890" cy="90" r="240" fill="#d3ad58" opacity=".08"/><path d="M170 380h650l-85 95H255z" fill="#f5f1e8" opacity=".94"/><path d="M310 275h355v105H310z" fill="#d9e5ea"/><path d="M390 205h175v70H390z" fill="#f7f4ed"/><rect x="420" y="145" width="22" height="60" fill="#d3ad58"/><rect x="500" y="145" width="22" height="60" fill="#d3ad58"/><circle cx="360" cy="330" r="10" fill="#d3ad58"/><circle cx="410" cy="330" r="10" fill="#d3ad58"/><circle cx="460" cy="330" r="10" fill="#d3ad58"/><path d="M0 500 Q180 450 360 500 T720 500 T1080 500 V720H0z" fill="#0d4762" opacity=".7"/><rect width="1080" height="720" fill="url(#shade)"/><text x="70" y="610" fill="#fff" font-family="Georgia,serif" font-size="54" font-weight="700">Luxury Cruise</text><text x="73" y="655" fill="#d3ad58" font-family="Arial,sans-serif" font-size="22" letter-spacing="5">OCEAN VOYAGE</text></svg>