<svg xmlns="http://www.w3.org/2000/svg" viewBox="0 0 1080 720" role="img" aria-label="Casino Resort"><defs><linearGradient id="bg" x1="0" x2="1" y1="0" y2="1"><stop stop-color="#110f1d"/><stop offset="1" stop-color="#55304d"/></linearGradient><linearGradient id="shade" x1="0" y1="0" x2="0" y2="1"><stop offset=".45" stop-color="#000" stop-opacity="0"/><stop offset="1" stop-color="#000" stop-opacity=".62"/></linearGradient></defs><rect width="1080" height="720" fill="url(#bg)"/><circle cx="890" cy="90" r="240" fill="#d3ad58" opacity=".08"/><rect x="140" y="250" width="120" height="280" fill="#15243a"/><rect x="290" y="180" width="150" height="350" fill="#1d304a"/><rect x="475" y="220" width="110" height="310" fill="#263a54"/><rect x="620" y="140" width="170" height="390" fill="#1a2b43"/><path d="M695 70l55 70H640z" fill="#d3ad58"/><g fill="#d3ad58" opacity=".9"><rect x="170" y="270" width="10" height="18"/><rect x="170" y="315" width="10" height="18"/><rect x="170" y="360" width="10" height="18"/><rect x="170" y="405" width="10" height="18"/><rect x="170" y="450" width="10" height="18"/><rect x="170" y="495" width="10" height="18"/><rect x="215" y="270" width="10" height="18"/><rect x="215" y="315" width="10" height="18"/><rect x="215" y="360" width="10" height="18"/><rect x="215" y="405" width="10" height="18"/><rect x="215" y="450" width="10" height="18"/><rect x="215" y="495" width="10" height="18"/><rect x="260" y="270" width="10" height="18"/><rect x="260" y="315" width="10" height="18"/><rect x="260" y="360" width="10" height="18"/><rect x="260" y="405" width="10" height="18"/><rect x="260" y="450" width="10" height="18"/><rect x="260" y="495" width="10" height="18"/><rect x="305" y="270" width="10" height="18"/><rect x="305" y="315" width="10" height="18"/><rect x="305" y="360" width="10" height="18"/><rect x="305" y="405" width="10" height="18"/><rect x="305" y="450" width="10" height="18"/><rect x="305" y="495" width="10" height="18"/><rect x="350" y="270" width="10" height="18"/><rect x="350" y="315" width="10" height="18"/><rect x="350" y="360" width="10" height="18"/><rect x="350" y="405" width="10" height="18"/><rect x="350" y="450" width="10" height="18"/><rect x="350" y="495" width="10" height="18"/><rect x="395" y="270" width="10" height="18"/><rect x="395" y="315" width="10" height="18"/><rect x="395" y="360" width="10" height="18"/><rect x="395" y="405" width="10" height="18"/><rect x="395" y="450" width="10" height="18"/><rect x="395" y="495" width="10" height="18"/><rect x="440" y="270" width="10" height="18"/><rect x="440" y="315" width="10" height="18"/><rect x="440" y="360" width="10" height="18"/><rect x="440" y="405" width="10" height="18"/><rect x="440" y="450" width="10" height="18"/><rect x="440" y="495" width="10" height="18"/><rect x="485" y="270" width="10" height="18"/><rect x="485" y="315" width="10" height="18"/><rect x="485" y="360" width="10" height="18"/><rect x="485" y="405" width="10" height="18"/><rect x="485" y="450" width="10" height="18"/><rect x="485" y="495" width="10" height="18"/><rect x="530" y="270" width="10" height="18"/><rect x="530" y="315" width="10" height="18"/><rect x="530" y="360" width="10" height="18"/><rect x="530" y="405" width="10" height="18"/><rect x="530" y="450" width="10" height="18"/><rect x="530" y="495" width="10" height="18"/><rect x="575" y="270" width="10" height="18"/><rect x="575" y="315" width="10" height="18"/><rect x="575" y="360" width="10" height="18"/><rect x="575" y="405" width="10" height="18"/><rect x="575" y="450" width="10" height="18"/><rect x="575" y="495" width="10" height="18"/><rect x="620" y="270" width="10" height="18"/><rect x="620" y="315" width="10" height="18"/><rect x="620" y="360" width="10" height="18"/><rect x="620" y="405" width="10" height="18"/><rect x="620" y="450" width="10" height="18"/><rect x="620" y="495" width="10" height="18"/><rect x="665" y="270" width="10" height="18"/><rect x="665" y="315" width="10" height="18"/><rect x="665" y="360" width="10" height="18"/><rect x="665" y="405" width="10" height="18"/><rect x="665" y="450" width="10" height="18"/><rect x="665" y="495" width="10" height="18"/><rect x="710" y="270" width="10" height="18"/><rect x="710" y="315" width="10" height="18"/><rect x="710" y="360" width="10" height="18"/><rect x="710" y="405" width="10" height="18"/><rect x="710" y="450" width="10" height="18"/><rect x="710" y="495" width="10" height="18"/><rect x="755" y="270" width="10" height="18"/><rect x="755" y="315" width="10" height="18"/><rect x="755" y="360" width="10" height="18"/><rect x="755" y="405" width="10" height="18"/><rect x="755" y="450" width="10" height="18"/><rect x="755" y="495" width="10" height="18"/></g><rect width="1080" height="720" fill="url(#shade)"/><text x="70" y="610" fill="#fff" font-family="Georgia,serif" font-size="54" font-weight="700">Casino Resort</text><text x="73" y="655" fill="#d3ad58" font-family="Arial,sans-serif" font-size="22" letter-spacing="5">VIP NIGHTS</text></svg>